<mxfile host="app.diagrams.net" modified="2024-03-26T20:45:23.428Z" agent="Mozilla/5.0 (Windows NT 10.0; Win64; x64) AppleWebKit/537.36 (KHTML, like Gecko) Chrome/123.0.0.0 Safari/537.36" etag="TDjfiPBQST661iIzjcFE" version="24.2.0" type="github">
  <diagram name="Страница — 1" id="1uDsLTaI9suoXPoTE2dv">
    <mxGraphModel dx="1562" dy="810" grid="1" gridSize="10" guides="1" tooltips="1" connect="1" arrows="1" fold="1" page="1" pageScale="1" pageWidth="827" pageHeight="1169" math="0" shadow="0">
      <root>
        <mxCell id="0" />
        <mxCell id="1" parent="0" />
        <mxCell id="Pz727kmpKBRVgdTMAVfR-1" value="" style="whiteSpace=wrap;html=1;" vertex="1" parent="1">
          <mxGeometry x="60" y="750" width="500" height="370" as="geometry" />
        </mxCell>
        <mxCell id="Pz727kmpKBRVgdTMAVfR-20" style="edgeStyle=orthogonalEdgeStyle;rounded=0;orthogonalLoop=1;jettySize=auto;html=1;entryX=0.5;entryY=0;entryDx=0;entryDy=0;" edge="1" parent="1" source="Pz727kmpKBRVgdTMAVfR-6" target="Pz727kmpKBRVgdTMAVfR-18">
          <mxGeometry relative="1" as="geometry" />
        </mxCell>
        <mxCell id="Pz727kmpKBRVgdTMAVfR-6" value="Web Browser" style="rounded=0;whiteSpace=wrap;html=1;absoluteArcSize=1;arcSize=14;strokeWidth=2;" vertex="1" parent="1">
          <mxGeometry x="200" y="60" width="120" height="40" as="geometry" />
        </mxCell>
        <mxCell id="Pz727kmpKBRVgdTMAVfR-13" value="" style="group" vertex="1" connectable="0" parent="1">
          <mxGeometry x="190" y="220" width="140" height="60" as="geometry" />
        </mxCell>
        <mxCell id="Pz727kmpKBRVgdTMAVfR-11" value="VM" style="rounded=0;whiteSpace=wrap;html=1;absoluteArcSize=1;arcSize=14;strokeWidth=2;labelPosition=left;verticalLabelPosition=top;align=right;verticalAlign=bottom;labelBackgroundColor=none;fillColor=#FF9933;spacingTop=0;" vertex="1" parent="Pz727kmpKBRVgdTMAVfR-13">
          <mxGeometry width="140" height="60" as="geometry" />
        </mxCell>
        <mxCell id="Pz727kmpKBRVgdTMAVfR-12" value="Frontend" style="rounded=0;whiteSpace=wrap;html=1;absoluteArcSize=1;arcSize=14;strokeWidth=2;" vertex="1" parent="Pz727kmpKBRVgdTMAVfR-13">
          <mxGeometry x="10" y="10" width="120" height="40" as="geometry" />
        </mxCell>
        <mxCell id="Pz727kmpKBRVgdTMAVfR-17" value="" style="group" vertex="1" connectable="0" parent="1">
          <mxGeometry x="190" y="130" width="140" height="60" as="geometry" />
        </mxCell>
        <mxCell id="Pz727kmpKBRVgdTMAVfR-18" value="VM" style="rounded=0;whiteSpace=wrap;html=1;absoluteArcSize=1;arcSize=14;strokeWidth=2;labelPosition=left;verticalLabelPosition=top;align=right;verticalAlign=bottom;labelBackgroundColor=none;fillColor=#FF9933;spacingTop=0;" vertex="1" parent="Pz727kmpKBRVgdTMAVfR-17">
          <mxGeometry width="140" height="60" as="geometry" />
        </mxCell>
        <mxCell id="Pz727kmpKBRVgdTMAVfR-19" value="Nginx" style="rounded=0;whiteSpace=wrap;html=1;absoluteArcSize=1;arcSize=14;strokeWidth=2;" vertex="1" parent="Pz727kmpKBRVgdTMAVfR-17">
          <mxGeometry x="10" y="10" width="120" height="40" as="geometry" />
        </mxCell>
        <mxCell id="Pz727kmpKBRVgdTMAVfR-21" style="edgeStyle=orthogonalEdgeStyle;rounded=0;orthogonalLoop=1;jettySize=auto;html=1;entryX=0.5;entryY=0;entryDx=0;entryDy=0;" edge="1" parent="1" source="Pz727kmpKBRVgdTMAVfR-18" target="Pz727kmpKBRVgdTMAVfR-11">
          <mxGeometry relative="1" as="geometry" />
        </mxCell>
        <mxCell id="Pz727kmpKBRVgdTMAVfR-22" value="" style="group" vertex="1" connectable="0" parent="1">
          <mxGeometry x="190" y="310" width="140" height="60" as="geometry" />
        </mxCell>
        <mxCell id="Pz727kmpKBRVgdTMAVfR-23" value="VM" style="rounded=0;whiteSpace=wrap;html=1;absoluteArcSize=1;arcSize=14;strokeWidth=2;labelPosition=left;verticalLabelPosition=top;align=right;verticalAlign=bottom;labelBackgroundColor=none;fillColor=#FF9933;spacingTop=0;" vertex="1" parent="Pz727kmpKBRVgdTMAVfR-22">
          <mxGeometry width="140" height="60" as="geometry" />
        </mxCell>
        <mxCell id="Pz727kmpKBRVgdTMAVfR-24" value="Backend" style="rounded=0;whiteSpace=wrap;html=1;absoluteArcSize=1;arcSize=14;strokeWidth=2;" vertex="1" parent="Pz727kmpKBRVgdTMAVfR-22">
          <mxGeometry x="10" y="10" width="120" height="40" as="geometry" />
        </mxCell>
        <mxCell id="Pz727kmpKBRVgdTMAVfR-25" style="edgeStyle=orthogonalEdgeStyle;rounded=0;orthogonalLoop=1;jettySize=auto;html=1;entryX=0.5;entryY=0;entryDx=0;entryDy=0;" edge="1" parent="1" source="Pz727kmpKBRVgdTMAVfR-11" target="Pz727kmpKBRVgdTMAVfR-23">
          <mxGeometry relative="1" as="geometry" />
        </mxCell>
        <mxCell id="Pz727kmpKBRVgdTMAVfR-26" value="DWH" style="strokeWidth=2;html=1;shape=mxgraph.flowchart.direct_data;whiteSpace=wrap;fillColor=#dae8fc;strokeColor=#6c8ebf;" vertex="1" parent="1">
          <mxGeometry x="570" y="470" width="100" height="60" as="geometry" />
        </mxCell>
        <mxCell id="Pz727kmpKBRVgdTMAVfR-27" value="" style="group" vertex="1" connectable="0" parent="1">
          <mxGeometry x="440" y="270" width="140" height="60" as="geometry" />
        </mxCell>
        <mxCell id="Pz727kmpKBRVgdTMAVfR-28" value="VM" style="rounded=0;whiteSpace=wrap;html=1;absoluteArcSize=1;arcSize=14;strokeWidth=2;labelPosition=left;verticalLabelPosition=top;align=right;verticalAlign=bottom;labelBackgroundColor=none;fillColor=#FF9933;spacingTop=0;" vertex="1" parent="Pz727kmpKBRVgdTMAVfR-27">
          <mxGeometry width="140" height="60" as="geometry" />
        </mxCell>
        <mxCell id="Pz727kmpKBRVgdTMAVfR-29" value="Video uploader" style="rounded=0;whiteSpace=wrap;html=1;absoluteArcSize=1;arcSize=14;strokeWidth=2;" vertex="1" parent="Pz727kmpKBRVgdTMAVfR-27">
          <mxGeometry x="10" y="10" width="120" height="40" as="geometry" />
        </mxCell>
        <mxCell id="Pz727kmpKBRVgdTMAVfR-30" value="" style="group" vertex="1" connectable="0" parent="1">
          <mxGeometry x="440" y="350" width="140" height="60" as="geometry" />
        </mxCell>
        <mxCell id="Pz727kmpKBRVgdTMAVfR-31" value="VM" style="rounded=0;whiteSpace=wrap;html=1;absoluteArcSize=1;arcSize=14;strokeWidth=2;labelPosition=left;verticalLabelPosition=top;align=right;verticalAlign=bottom;labelBackgroundColor=none;fillColor=#FF9933;spacingTop=0;" vertex="1" parent="Pz727kmpKBRVgdTMAVfR-30">
          <mxGeometry width="140" height="60" as="geometry" />
        </mxCell>
        <mxCell id="Pz727kmpKBRVgdTMAVfR-32" value="TG bot" style="rounded=0;whiteSpace=wrap;html=1;absoluteArcSize=1;arcSize=14;strokeWidth=2;" vertex="1" parent="Pz727kmpKBRVgdTMAVfR-30">
          <mxGeometry x="10" y="10" width="120" height="40" as="geometry" />
        </mxCell>
      </root>
    </mxGraphModel>
  </diagram>
</mxfile>
